<svg width="1600" height="420" viewBox="0 0 1600 420" fill="none" xmlns="http://www.w3.org/2000/svg">
  <defs>
    <linearGradient id="bg" x1="120" y1="40" x2="1500" y2="380" gradientUnits="userSpaceOnUse">
      <stop stop-color="#08111F"/>
      <stop offset="0.52" stop-color="#0E1D35"/>
      <stop offset="1" stop-color="#173D57"/>
    </linearGradient>
    <linearGradient id="accent" x1="0" y1="0" x2="1" y2="1">
      <stop stop-color="#5CE1E6"/>
      <stop offset="1" stop-color="#8AF7C2"/>
    </linearGradient>
    <filter id="glow" x="-20%" y="-20%" width="140%" height="140%">
      <feGaussianBlur stdDeviation="18" result="blur"/>
      <feColorMatrix in="blur" type="matrix" values="1 0 0 0 0.1  0 1 0 0 0.8  0 0 1 0 0.9  0 0 0 0.7 0"/>
    </filter>
  </defs>

  <rect width="1600" height="420" rx="34" fill="url(#bg)"/>

  <circle cx="1220" cy="120" r="110" fill="#5CE1E6" fill-opacity="0.14" filter="url(#glow)"/>
  <circle cx="1350" cy="250" r="150" fill="#8AF7C2" fill-opacity="0.10" filter="url(#glow)"/>
  <circle cx="1060" cy="300" r="74" fill="#FFFFFF" fill-opacity="0.06"/>

  <g opacity="0.24">
    <circle cx="118" cy="88" r="4" fill="#D7F5FF"/>
    <circle cx="160" cy="120" r="3" fill="#D7F5FF"/>
    <circle cx="210" cy="82" r="5" fill="#D7F5FF"/>
    <circle cx="260" cy="138" r="3" fill="#D7F5FF"/>
    <circle cx="310" cy="92" r="4" fill="#D7F5FF"/>
    <circle cx="360" cy="134" r="5" fill="#D7F5FF"/>
    <circle cx="430" cy="92" r="3" fill="#D7F5FF"/>
    <circle cx="490" cy="132" r="4" fill="#D7F5FF"/>
  </g>

  <rect x="86" y="74" width="10" height="240" rx="5" fill="url(#accent)" opacity="0.9"/>
  <rect x="116" y="74" width="10" height="180" rx="5" fill="#5CE1E6" opacity="0.7"/>
  <rect x="146" y="74" width="10" height="140" rx="5" fill="#8AF7C2" opacity="0.8"/>

  <text x="190" y="145" fill="#F3FAFF" font-family="Segoe UI, Arial, sans-serif" font-size="72" font-weight="700">
    ECS2D Rendering
  </text>
  <text x="192" y="205" fill="#B7D0E0" font-family="Segoe UI, Arial, sans-serif" font-size="28" font-weight="400">
    Unity ECS sprite rendering as a reusable UPM package
  </text>

  <g font-family="Segoe UI, Arial, sans-serif" font-size="22" font-weight="600">
    <rect x="192" y="248" width="146" height="44" rx="22" fill="#11253E" stroke="#2B4F71"/>
    <text x="219" y="277" fill="#D8F1FF">Entities 1.4</text>

    <rect x="352" y="248" width="132" height="44" rx="22" fill="#11253E" stroke="#2B4F71"/>
    <text x="388" y="277" fill="#D8F1FF">URP</text>

    <rect x="498" y="248" width="140" height="44" rx="22" fill="#11253E" stroke="#2B4F71"/>
    <text x="525" y="277" fill="#D8F1FF">UPM</text>
  </g>

  <g transform="translate(1100 82)">
    <rect x="0" y="0" width="380" height="258" rx="28" fill="#08111F" fill-opacity="0.52" stroke="#2F5677"/>
    <circle cx="72" cy="78" r="34" fill="#5CE1E6" fill-opacity="0.9"/>
    <circle cx="138" cy="110" r="46" fill="#8AF7C2" fill-opacity="0.75"/>
    <circle cx="204" cy="74" r="28" fill="#FFFFFF" fill-opacity="0.72"/>
    <circle cx="270" cy="122" r="56" fill="#5CE1E6" fill-opacity="0.35"/>
    <circle cx="324" cy="70" r="18" fill="#FFFFFF" fill-opacity="0.82"/>
    <path d="M34 196C84 164 132 166 182 194C230 222 286 228 344 194" stroke="#8AF7C2" stroke-width="8" stroke-linecap="round"/>
    <path d="M34 216C94 182 150 184 196 208C244 232 294 240 344 208" stroke="#5CE1E6" stroke-opacity="0.6" stroke-width="6" stroke-linecap="round"/>
  </g>
</svg>
